<svg id="Capa_1" enable-background="new 0 0 512 512" height="512" viewBox="0 0 512 512" width="512" xmlns="http://www.w3.org/2000/svg"><g><path d="m497 0h-241-241c-8.291 0-15 6.709-15 15v482c0 8.291 6.709 15 15 15h241 241c8.291 0 15-6.709 15-15v-482c0-8.291-6.709-15-15-15zm-436 76c0-8.291 6.709-15 15-15h119.165c8.951 0 15.891 7.788 14.912 16.655-7.661 69.067-63.354 124.761-132.422 132.422-9.017.949-16.655-6.056-16.655-14.912zm134.165 375h-119.165c-8.291 0-15-6.709-15-15v-119.165c0-8.729 7.6-15.988 16.655-14.912 69.067 7.661 124.761 63.354 132.422 132.422.978 8.862-5.955 16.655-14.912 16.655zm73.682-115.327c-2.71 4.497-7.588 7.251-12.847 7.251s-10.137-2.754-12.847-7.251c-16.436-27.275-39.551-50.391-66.826-66.826-4.497-2.71-7.251-7.588-7.251-12.847s2.754-10.137 7.251-12.847c27.275-16.436 50.391-39.551 66.826-66.826 2.71-4.497 7.778-6.746 12.847-6.746s10.137 2.249 12.847 6.746c16.436 27.275 39.551 50.391 66.826 66.826 4.497 2.71 7.251 7.588 7.251 12.847s-2.754 10.137-7.251 12.847c-27.276 16.435-50.391 39.55-66.826 66.826zm182.153 100.327c0 8.291-6.709 15-15 15h-119.165c-8.951 0-15.891-7.788-14.912-16.655 7.661-69.067 63.354-124.761 132.422-132.422 8.857-1.047 16.655 6.007 16.655 14.912zm0-240.835c0 8.79-7.576 15.868-16.655 14.912-69.067-7.661-124.761-63.354-132.422-132.422-.978-8.862 5.955-16.655 14.912-16.655h119.165c8.291 0 15 6.709 15 15z" fill="#dfe7f4"/><path d="m512 497v-482c0-8.291-6.709-15-15-15h-241v169.582c5.068 0 10.137 2.249 12.847 6.746 16.436 27.275 39.551 50.391 66.826 66.826 4.497 2.71 7.251 7.588 7.251 12.847s-2.754 10.137-7.251 12.847c-27.275 16.436-50.391 39.551-66.826 66.826-2.71 4.497-7.588 7.251-12.847 7.251v169.075h241c8.291 0 15-6.709 15-15zm-61-61c0 8.291-6.709 15-15 15h-119.165c-8.951 0-15.891-7.788-14.912-16.655 7.661-69.067 63.354-124.761 132.422-132.422 8.857-1.047 16.655 6.007 16.655 14.912zm0-240.835c0 8.79-7.576 15.868-16.655 14.912-69.067-7.661-124.761-63.354-132.422-132.422-.978-8.862 5.955-16.655 14.912-16.655h119.165c8.291 0 15 6.709 15 15z" fill="#c7cfe1"/></g></svg>