<?xml version="1.0" standalone="no"?>
<!DOCTYPE svg PUBLIC "-//W3C//DTD SVG 20010904//EN"
 "http://www.w3.org/TR/2001/REC-SVG-20010904/DTD/svg10.dtd">
<svg version="1.0" xmlns="http://www.w3.org/2000/svg"
 width="306.000000pt" height="462.000000pt" viewBox="0 0 306.000000 462.000000"
 preserveAspectRatio="xMidYMid meet">
<metadata>
Created by potrace 1.10, written by Peter Selinger 2001-2011
</metadata>
<g transform="translate(0.000000,462.000000) scale(0.100000,-0.100000)"
fill="#666666" stroke="none">
<path d="M0 4565 c0 -30 5 -55 10 -55 6 0 10 -9 10 -19 0 -11 -5 -23 -10 -26
-14 -9 -14 -687 1 -702 8 -8 8 -13 0 -17 -6 -4 -11 -28 -11 -53 0 -43 1 -45
25 -39 19 5 23 3 19 -9 -4 -8 -15 -15 -25 -15 -17 0 -19 -8 -19 -65 0 -63 1
-65 20 -55 16 9 22 8 27 -6 4 -11 -2 -23 -20 -36 l-27 -20 0 -394 c0 -323 2
-392 13 -388 8 3 26 0 41 -6 22 -8 34 -7 57 7 24 14 33 15 49 5 30 -19 88 -14
121 9 27 19 36 20 87 11 31 -5 72 -7 90 -5 40 6 122 -23 122 -43 0 -19 -35
-18 -69 2 -26 15 -30 15 -70 -6 -41 -20 -43 -23 -37 -56 8 -42 -14 -48 -32 -8
-17 35 -94 69 -123 53 -12 -6 -34 -9 -49 -6 -34 7 -70 -2 -70 -17 0 -6 9 -28
20 -49 12 -21 15 -37 9 -37 -12 0 -53 30 -100 73 -58 53 -59 50 -59 -193 0
-158 4 -226 12 -241 10 -17 10 -23 1 -26 -17 -6 -19 -1093 -3 -1093 6 0 10 -7
10 -15 0 -8 -4 -15 -10 -15 -7 0 -10 -143 -10 -410 l0 -409 30 -16 c16 -8 48
-15 70 -15 71 0 105 -31 54 -50 -28 -11 -24 -30 6 -30 10 0 22 -5 25 -11 9
-13 56 -33 70 -29 6 1 38 2 72 1 68 -1 82 9 63 44 -15 28 -7 55 15 55 18 0 20
-21 3 -38 -8 -8 -9 -15 -2 -22 13 -13 54 1 73 24 11 13 10 20 -8 42 -28 35
-27 46 4 32 14 -6 25 -19 25 -30 0 -22 8 -23 31 -2 10 9 23 13 29 9 16 -10 6
-72 -16 -96 -26 -29 -8 -39 76 -39 43 0 82 -4 85 -10 4 -6 178 -10 491 -10
472 0 484 0 484 19 0 32 20 35 49 7 35 -34 61 -34 61 -1 0 29 16 32 48 9 23
-16 67 -10 56 7 -11 19 5 55 35 77 25 18 35 20 56 12 23 -9 32 -6 57 15 16 14
38 25 48 25 10 0 26 3 36 7 14 5 16 3 11 -11 -10 -25 35 -43 67 -27 24 13 66
7 66 -10 0 -5 6 -9 14 -9 8 0 30 -18 49 -40 19 -22 40 -40 46 -40 7 0 24 -9
38 -20 19 -15 41 -20 83 -20 56 0 59 1 79 36 12 19 18 40 15 46 -7 11 34 58
50 58 16 -1 57 -70 54 -89 -2 -9 -16 -18 -32 -21 -16 -3 -31 -11 -34 -17 -3
-10 44 -13 212 -13 l216 0 0 60 c0 45 -4 60 -14 60 -8 0 -21 3 -30 6 -10 4
-17 -2 -22 -20 -9 -37 -37 -33 -60 9 -17 33 -17 36 -2 52 14 14 20 14 33 3 13
-11 23 -11 55 0 48 16 50 24 10 40 -17 7 -36 24 -43 39 -6 14 -22 30 -35 36
-27 12 -29 35 -2 35 11 0 28 8 39 19 12 12 27 17 45 14 23 -5 26 -2 26 22 0
15 -8 34 -17 41 -17 13 -17 13 0 14 16 0 17 26 17 409 l0 410 -22 3 c-32 5
-35 28 -4 28 23 0 26 4 26 34 0 28 -4 35 -22 39 l-23 4 23 8 22 7 0 599 c0
519 -2 599 -15 599 -8 0 -19 -9 -25 -20 -6 -11 -15 -20 -21 -20 -15 0 -122
-78 -132 -96 -4 -8 -14 -14 -21 -14 -8 0 -25 -15 -40 -34 -19 -26 -26 -46 -26
-81 0 -41 -5 -51 -39 -85 -50 -50 -92 -70 -160 -80 -43 -6 -61 -4 -79 8 -19
12 -28 13 -43 4 -15 -10 -24 -9 -43 3 -22 15 -24 14 -38 -7 -8 -13 -18 -31
-21 -42 -7 -18 -8 -18 -28 0 -20 18 -21 18 -35 -1 -8 -10 -14 -25 -14 -32 0
-7 -10 -18 -22 -24 -13 -7 -29 -21 -37 -31 -9 -14 -20 -18 -37 -14 -13 4 -35
4 -49 0 -20 -5 -25 -13 -25 -35 0 -34 -23 -75 -59 -105 -15 -13 -22 -27 -18
-37 9 -25 130 -77 177 -77 46 0 114 -25 106 -39 -9 -15 -197 -3 -235 15 -33
16 -35 16 -50 -5 -14 -18 -24 -20 -77 -17 -33 2 -70 9 -82 15 -28 15 -48 14
-66 -4 -22 -22 -9 -45 24 -45 33 0 48 -16 31 -33 -19 -19 -13 -91 9 -110 12
-10 18 -22 15 -27 -9 -15 -35 -12 -35 3 0 19 -74 97 -91 97 -8 0 -20 5 -27 12
-6 6 -36 13 -66 14 -54 3 -57 1 -96 -39 -84 -88 -125 -127 -137 -127 -7 0 -18
-10 -24 -22 -7 -13 -32 -40 -56 -61 -24 -21 -46 -50 -49 -63 -3 -13 -20 -32
-38 -43 -27 -17 -49 -19 -156 -19 -182 2 -273 -3 -286 -13 -7 -6 -22 -5 -40 1
-20 8 -35 8 -54 0 -15 -6 -35 -11 -46 -11 -10 1 -35 1 -54 1 -19 1 -55 8 -79
16 -57 19 -81 11 -81 -27 0 -32 2 -34 32 -18 16 9 24 8 36 -5 13 -13 13 -17 2
-32 -12 -14 -12 -18 3 -29 9 -7 17 -20 17 -30 0 -15 -7 -16 -54 -11 -41 6 -56
4 -63 -7 -4 -7 -17 -17 -27 -21 -15 -5 -17 -9 -8 -18 9 -9 20 -10 42 -1 27 10
34 8 60 -13 24 -21 33 -23 50 -14 12 6 28 9 36 6 18 -7 18 -33 0 -43 -38 -23
-42 -89 -4 -78 16 6 18 3 12 -19 -6 -24 -4 -26 30 -26 23 0 39 -5 42 -15 4 -8
12 -15 20 -15 9 0 14 -12 14 -34 0 -34 0 -34 40 -29 46 6 55 -11 15 -29 -17
-7 -25 -19 -25 -35 0 -40 -34 -25 -40 17 -8 58 -34 85 -98 103 -32 9 -74 27
-94 41 -65 44 -75 47 -102 35 -14 -7 -32 -9 -42 -5 -15 6 -15 9 5 29 27 30 27
51 -3 70 -36 24 -40 84 -8 114 14 13 36 23 48 23 13 0 24 4 24 9 0 5 7 17 15
25 23 23 2 61 -28 51 -12 -4 -39 -10 -60 -12 -34 -5 -38 -3 -35 13 7 36 63 56
190 67 119 10 122 10 136 -11 15 -22 58 -30 64 -12 4 13 105 42 141 41 83 -2
133 2 170 13 20 6 34 4 53 -9 52 -34 132 2 257 116 37 34 67 68 67 74 0 7 16
23 35 36 27 18 35 30 32 46 -2 12 0 28 4 35 5 8 2 18 -10 28 -11 8 -22 34 -26
58 l-7 42 34 -2 c35 -3 38 4 24 49 -6 17 -1 25 20 36 l28 15 -32 16 c-36 18
-50 56 -34 89 l11 22 0 -23 c1 -19 15 -30 73 -57 l73 -33 23 23 c24 25 119 44
142 30 6 -4 20 1 31 11 10 9 29 22 41 28 11 6 29 26 39 45 10 18 30 41 46 51
15 9 37 27 47 39 11 11 29 21 40 21 32 0 66 28 82 66 13 30 16 33 34 22 16
-10 25 -9 49 5 16 9 36 17 45 17 9 0 40 13 70 29 29 15 64 31 77 34 44 10 94
31 137 59 24 15 47 28 51 28 5 0 17 12 26 28 48 73 97 121 131 128 22 4 40 2
47 -5 18 -18 47 -13 47 8 0 17 100 131 115 131 3 0 30 19 60 43 l54 42 0 328
c1 281 -1 327 -14 327 -16 0 -38 34 -28 44 3 3 15 6 25 6 17 0 18 11 18 150 0
161 -4 171 -46 125 -28 -30 -50 -32 -59 -4 -9 26 -29 19 -33 -12 -5 -48 -24
-102 -53 -149 -16 -26 -29 -59 -29 -73 0 -36 -18 -43 -32 -13 -14 32 -58 37
-58 6 0 -10 -9 -24 -20 -30 -11 -6 -20 -19 -20 -28 0 -17 -39 -39 -97 -56 -32
-10 -36 -34 -14 -79 11 -22 18 -44 15 -49 -7 -11 -38 -10 -50 2 -8 8 -19 7
-39 0 -32 -12 -51 -1 -41 26 5 12 14 15 36 11 38 -8 48 8 12 21 -37 13 -63 1
-112 -49 -35 -36 -47 -43 -93 -47 -55 -5 -103 -32 -145 -84 -13 -15 -28 -28
-34 -28 -5 0 -29 -14 -53 -31 -45 -32 -65 -32 -65 2 0 27 -25 34 -54 15 -19
-12 -39 -14 -88 -9 -47 4 -74 1 -99 -10 -19 -8 -59 -26 -91 -40 -31 -14 -64
-36 -72 -50 -12 -17 -35 -29 -81 -42 -45 -12 -66 -23 -70 -36 -7 -20 -40 -26
-50 -9 -9 15 -66 12 -84 -4 -26 -22 -75 -26 -106 -10 -37 19 -54 12 -48 -20 5
-22 2 -26 -19 -26 -27 0 -54 24 -59 54 -6 31 -33 42 -72 28 -19 -7 -47 -9 -64
-6 -27 5 -31 3 -37 -21 -10 -38 -55 -95 -83 -106 -21 -8 -23 -13 -17 -44 5
-28 3 -36 -11 -41 -29 -12 -50 10 -55 57 -7 60 -28 61 -71 5 -35 -47 -56 -57
-65 -31 -8 19 13 51 73 115 l46 50 25 -25 c41 -41 58 -32 107 62 36 66 29 83
-30 83 -32 0 -45 4 -45 14 0 8 7 16 15 20 8 3 15 15 15 26 0 15 -6 20 -27 20
-46 -1 -67 -23 -60 -65 5 -28 2 -37 -13 -45 -37 -20 -43 -13 -35 47 6 48 13
62 47 95 42 40 77 48 98 23 7 -8 32 -24 56 -35 35 -15 44 -24 44 -44 0 -13 7
-32 16 -40 18 -19 20 -19 45 -6 15 9 21 7 25 -5 11 -29 44 -39 65 -19 18 16
22 16 56 1 62 -26 132 -31 153 -12 29 26 63 16 74 -23 9 -32 10 -33 50 -27 23
4 50 15 61 25 11 9 33 20 48 24 17 4 31 16 37 32 6 14 27 33 52 45 24 11 59
29 78 39 19 11 47 22 61 25 26 5 51 35 91 111 18 33 55 49 89 39 19 -6 18 -8
-8 -40 -59 -72 -74 -95 -68 -105 10 -16 48 -11 80 10 39 26 67 25 91 -1 14
-15 26 -19 47 -15 39 8 76 37 77 61 1 23 72 72 119 81 17 4 36 13 42 20 6 8
20 14 30 14 10 0 23 8 28 19 12 22 70 58 109 67 44 11 92 63 92 101 0 39 36
113 56 113 7 0 17 7 22 16 5 8 31 21 58 28 46 12 49 14 56 52 6 36 25 94 59
172 8 19 23 35 37 39 27 6 62 48 62 75 0 27 28 78 44 78 7 0 21 -9 31 -20 44
-48 45 -39 45 290 l0 310 -1530 0 -1530 0 0 -55z m70 -37 c0 -16 -3 -19 -11
-11 -6 6 -8 16 -5 22 11 17 16 13 16 -11z m218 -5 c-2 -10 -12 -18 -23 -18
-11 0 -21 8 -23 18 -3 13 3 17 23 17 20 0 26 -4 23 -17z m-78 -26 c0 -7 -13
-26 -29 -41 -25 -24 -33 -26 -62 -19 -24 7 -35 16 -37 31 -3 18 2 22 25 23 15
0 37 4 48 9 30 13 55 12 55 -3z m2168 -40 c2 -12 -3 -17 -17 -17 -15 0 -21 6
-21 21 0 25 33 22 38 -4z m-502 -324 c18 -24 17 -33 -2 -33 -16 0 -43 27 -44
43 0 14 33 7 46 -10z m-996 -13 c0 -5 -9 -10 -20 -10 -11 0 -20 5 -20 10 0 6
9 10 20 10 11 0 20 -4 20 -10z m-410 -49 c0 -5 -17 -34 -37 -65 -25 -37 -44
-56 -58 -56 -23 0 -51 -62 -54 -120 -2 -35 -24 -80 -41 -80 -5 0 -12 9 -15 20
-5 14 0 26 15 38 20 16 21 21 11 60 -14 52 -2 82 34 82 14 0 25 4 25 9 0 10
50 77 82 108 20 21 38 22 38 4z m1460 -42 c0 -11 -4 -17 -10 -14 -5 3 -10 13
-10 21 0 8 5 14 10 14 6 0 10 -9 10 -21z m-1730 -218 c0 -27 -19 -36 -37 -18
-18 18 -9 37 18 37 12 0 19 -7 19 -19z m60 -111 c0 -6 -7 -13 -15 -16 -8 -4
-15 -14 -15 -23 0 -20 -19 -41 -37 -41 -24 0 -13 35 19 62 35 29 48 34 48 18z
m390 -265 c0 -26 -3 -33 -15 -29 -9 4 -15 19 -15 35 0 19 5 29 15 29 10 0 15
-11 15 -35z m1047 -29 c-17 -25 -57 -34 -57 -13 0 18 41 46 58 39 10 -3 10 -9
-1 -26z m1267 -2 c31 -12 18 -43 -23 -55 -38 -11 -71 -8 -71 8 1 8 59 50 72
52 3 1 13 -2 22 -5z m-2740 -70 c16 -42 -2 -76 -29 -54 -18 15 -19 42 -3 58
16 16 25 15 32 -4z m2506 -9 c0 -15 -26 -32 -36 -23 -2 3 -2 13 2 22 8 20 34
21 34 1z m-1797 -151 c18 -7 22 -19 9 -28 -4 -2 -19 7 -32 21 -14 15 -18 23
-10 20 8 -4 23 -10 33 -13z m-193 -18 c0 -28 -168 -55 -177 -28 -3 8 8 12 35
12 23 0 45 6 52 15 16 19 90 21 90 1z m1930 -40 c0 -8 -8 -21 -19 -28 -10 -7
-22 -28 -26 -46 -5 -26 -11 -33 -28 -30 -36 5 -32 37 9 79 39 40 64 50 64 25z
m348 -50 c3 -20 0 -27 -10 -24 -7 3 -14 17 -16 32 -3 20 0 27 10 24 7 -3 14
-17 16 -32z m-2960 -59 c2 -10 -3 -17 -12 -17 -18 0 -29 16 -21 31 9 14 29 6
33 -14z m111 -74 c6 -31 9 -58 7 -61 -10 -9 -26 10 -26 31 0 12 -7 31 -15 41
-20 27 -19 46 4 46 14 0 21 -12 30 -57z m2849 -36 c2 -19 -1 -27 -12 -27 -11
0 -16 10 -16 31 0 38 24 35 28 -4z m-2440 0 c5 -23 -36 -43 -44 -22 -7 18 14
47 30 42 6 -2 12 -11 14 -20z m511 -86 c24 -15 2 -31 -43 -31 -55 0 -66 11
-24 26 41 15 49 16 67 5z m451 -52 c0 -18 -35 -5 -38 14 -3 16 -1 17 17 7 12
-6 21 -15 21 -21z m-832 -148 c3 -8 -1 -12 -9 -9 -7 2 -15 10 -17 17 -3 8 1
12 9 9 7 -2 15 -10 17 -17z m112 -26 c0 -3 -9 -5 -20 -5 -11 0 -20 7 -20 15 0
13 4 14 20 5 11 -6 20 -13 20 -15z m-36 -70 c20 -30 18 -30 -45 -8 -59 21 -63
33 -10 33 30 0 42 -5 55 -25z m-472 -26 c9 -5 32 -9 51 -9 21 0 37 -6 40 -15
9 -22 88 -69 126 -75 19 -3 36 -10 38 -16 7 -20 -27 -24 -65 -8 -20 9 -50 16
-67 17 -16 1 -47 15 -68 31 -21 16 -61 40 -88 53 -28 12 -48 27 -44 33 6 10
46 4 77 -11z m1023 -78 c3 -5 1 -13 -5 -16 -15 -9 -43 3 -35 15 8 13 32 13 40
1z m-679 -53 c32 -34 58 -78 51 -84 -7 -7 -56 29 -97 70 -22 22 -27 33 -19 43
13 15 34 6 65 -29z m484 27 c7 -8 18 -15 25 -15 17 0 27 -28 13 -36 -6 -4 -16
0 -23 9 -8 11 -27 17 -56 17 -56 0 -79 13 -53 29 28 15 80 13 94 -4z m-585
-154 c3 -5 1 -12 -4 -15 -13 -8 -42 4 -35 15 7 12 31 12 39 0z m2245 -71 c-19
-12 -47 -13 -54 -1 -8 13 47 31 59 19 6 -6 5 -12 -5 -18z m-1853 -36 c-9 -9
-28 6 -21 18 4 6 10 6 17 -1 6 -6 8 -13 4 -17z m-774 -20 c89 -45 159 -94 224
-157 59 -56 87 -78 123 -92 8 -4 38 -18 65 -31 l50 -25 -45 6 c-24 3 -65 19
-90 34 -26 16 -60 32 -78 35 -17 4 -35 13 -41 19 -5 7 -43 28 -83 46 -139 64
-143 67 -143 101 0 23 -8 37 -28 52 -15 11 -25 24 -21 29 7 12 8 12 67 -17z
m-113 -23 c16 -32 13 -43 -10 -29 -20 13 -28 48 -10 48 5 0 14 -9 20 -19z
m1384 0 c3 -5 -1 -14 -9 -21 -12 -10 -18 -10 -30 0 -18 15 -11 30 15 30 10 0
21 -4 24 -9z m-126 -101 c36 -22 50 -46 35 -61 -14 -14 -41 -1 -48 23 -4 10
-18 24 -31 30 -13 6 -24 15 -24 20 0 14 34 9 68 -12z m857 -40 c-6 -9 -9 -9
-16 1 -10 17 0 34 13 21 6 -6 7 -16 3 -22z m659 -16 c10 -26 7 -34 -14 -34
-20 0 -44 32 -33 44 12 12 41 6 47 -10z m-1877 -172 c61 -16 117 -34 125 -38
7 -5 35 -11 62 -14 54 -5 64 -16 42 -45 -12 -16 -16 -17 -29 -6 -9 7 -42 17
-74 22 -32 6 -74 13 -93 16 -19 3 -46 14 -59 24 -13 11 -39 19 -57 19 -34 0
-104 35 -104 52 0 14 53 5 187 -30z m1423 -108 c0 -14 -3 -14 -15 -4 -8 7 -15
14 -15 16 0 2 7 4 15 4 8 0 15 -7 15 -16z m409 -8 c28 -30 10 -45 -19 -16 -21
21 -26 40 -12 40 5 0 19 -11 31 -24z m-1426 -19 c-3 -5 -10 -4 -15 1 -6 6 -7
16 -3 22 6 9 9 9 16 -1 4 -7 5 -17 2 -22z m1156 20 c14 -18 4 -27 -30 -27 -29
0 -44 13 -34 30 9 15 51 12 64 -3z m116 -7 c10 -16 -43 -36 -58 -21 -9 9 -9
14 3 21 20 13 47 13 55 0z m53 -132 c3 -33 7 -38 28 -38 13 0 33 5 44 12 10 7
23 8 27 4 4 -5 2 -11 -5 -13 -7 -3 -19 -18 -27 -34 -19 -37 -47 -37 -63 -1 -7
15 -21 43 -32 62 -25 46 -25 52 3 48 18 -2 23 -10 25 -40z m-953 12 c3 -6 -1
-13 -10 -16 -19 -8 -30 0 -20 15 8 14 22 14 30 1z m1239 -119 c7 -11 -22 -23
-35 -15 -5 3 -9 9 -9 15 0 12 37 12 44 0z m-2219 -62 c4 -6 5 -12 2 -15 -7 -7
-37 7 -37 17 0 13 27 11 35 -2z m862 -55 c7 -18 -17 -38 -31 -24 -11 11 -1 40
14 40 6 0 13 -7 17 -16z m438 -20 c29 -19 32 -34 7 -34 -15 0 -52 32 -52 45 0
10 21 5 45 -11z m-239 -39 c3 -8 3 -19 -1 -25 -10 -16 -35 7 -28 26 7 18 22
18 29 -1z m498 -11 c38 -37 8 -74 -60 -74 -35 0 -36 -1 -30 -30 4 -25 2 -30
-13 -30 -10 0 -26 9 -36 20 -16 18 -17 23 -4 46 20 39 77 84 104 84 13 0 31
-7 39 -16z m-334 -13 c0 -11 -5 -23 -11 -27 -15 -9 -33 12 -26 30 9 23 37 20
37 -3z m-1730 -11 c0 -5 -7 -13 -17 -18 -24 -14 -9 -42 22 -42 24 0 25 -1 11
-16 -9 -8 -16 -21 -16 -27 0 -7 -7 -4 -14 6 -14 19 -32 22 -40 8 -11 -17 13
-59 64 -115 27 -31 50 -61 50 -66 0 -5 -11 -12 -25 -16 -14 -3 -30 -15 -36
-25 -12 -22 -42 -25 -58 -5 -10 11 -9 21 4 46 16 31 16 33 -10 70 -14 20 -37
48 -50 60 -35 33 -31 53 15 79 22 12 48 34 56 47 16 24 44 33 44 14z m588 1
c17 -11 42 -59 42 -81 0 -10 17 -31 37 -48 32 -25 35 -32 24 -46 -17 -21 -5
-92 20 -117 10 -10 30 -19 43 -19 28 0 53 -24 36 -35 -16 -10 -168 26 -182 43
-10 11 -9 17 5 27 21 15 21 28 1 67 -15 30 -15 32 2 45 16 12 15 13 -12 15
-52 2 -77 -3 -106 -23 -32 -23 -61 -22 -66 4 -2 11 6 20 22 26 40 16 76 53 76
78 0 23 26 73 39 73 3 0 12 -4 19 -9z m112 -1 c0 -5 11 -26 25 -46 29 -43 32
-67 8 -62 -10 2 -23 18 -29 37 -6 18 -18 38 -27 43 -23 13 -21 38 3 38 11 0
20 -4 20 -10z m1158 -86 c44 -13 -23 -83 -81 -84 -21 0 -52 -6 -70 -13 -32
-14 -107 -88 -107 -107 0 -16 -61 -80 -76 -80 -8 0 -15 7 -15 15 -7 86 0 110
32 100 13 -4 27 7 53 42 20 26 40 53 46 58 6 6 25 24 43 41 17 17 39 33 47 36
15 6 103 0 128 -8z m612 -18 c0 -2 3 -11 6 -20 4 -11 0 -16 -12 -16 -27 0 -48
16 -40 29 7 10 46 16 46 7z m110 -26 c0 -13 -11 -13 -30 0 -12 8 -11 10 8 10
12 0 22 -4 22 -10z m-474 -40 c21 -18 -4 -50 -39 -50 -21 0 -30 7 -38 27 -15
41 -6 54 31 43 18 -5 38 -14 46 -20z m-1346 -10 c0 -21 -15 -27 -25 -10 -7 12
2 30 16 30 5 0 9 -9 9 -20z m1159 6 c8 -9 8 -16 2 -20 -6 -4 -15 3 -21 14 -12
23 2 27 19 6z m-822 -6 c18 0 83 -60 83 -75 0 -10 13 -13 43 -12 36 2 42 -1
45 -19 2 -14 -6 -27 -23 -38 -25 -17 -26 -17 -36 14 -12 32 -16 35 -37 21 -19
-11 5 -61 30 -61 15 0 17 -5 12 -27 -8 -35 -22 -53 -40 -53 -11 0 -12 4 -3 19
10 15 8 24 -14 53 -15 19 -27 44 -27 55 0 11 -9 32 -20 46 -11 14 -20 30 -20
37 0 6 -14 17 -30 24 -33 13 -29 31 5 22 11 -3 25 -6 32 -6z m1141 -47 c38 22
42 21 42 -3 0 -24 -57 -90 -77 -90 -21 0 -15 -47 10 -71 12 -12 38 -28 57 -36
44 -19 80 -51 80 -73 0 -9 11 -27 25 -40 13 -13 31 -47 40 -75 17 -62 63 -108
125 -126 28 -9 40 -18 40 -31 0 -15 -5 -18 -21 -13 -12 4 -32 1 -45 -6 -20
-10 -29 -10 -50 2 -37 19 -60 57 -45 72 17 17 13 35 -8 42 -17 5 -97 116 -110
150 -2 6 -14 26 -27 46 -19 28 -30 35 -48 32 -19 -4 -25 1 -34 26 -6 17 -18
33 -27 36 -8 3 -22 7 -31 10 -13 4 -12 10 10 35 16 20 28 49 32 81 6 43 8 47
20 32 12 -17 14 -17 42 0z m374 -153 c4 -19 3 -49 -3 -66 -5 -18 -7 -44 -3
-58 5 -20 2 -26 -9 -26 -9 0 -19 5 -22 10 -10 17 -17 112 -10 148 8 45 36 40
47 -8z m-1139 -6 c3 -3 -8 -24 -24 -47 -31 -43 -35 -66 -18 -99 8 -16 8 -24
-4 -35 -12 -13 -21 -12 -66 2 -56 19 -61 27 -30 49 16 11 20 21 15 39 -8 32
12 57 65 77 53 21 54 22 62 14z m-701 -43 c18 -21 43 -41 55 -45 36 -11 48
-33 31 -54 -9 -9 -18 -29 -22 -45 -5 -23 -3 -29 20 -37 32 -12 27 -34 -9 -38
-21 -3 -30 2 -37 20 -9 20 -9 19 -7 -12 3 -43 -17 -49 -57 -16 l-29 24 32 28
c30 25 33 31 27 70 -3 23 -19 62 -36 87 -34 51 -36 57 -16 57 8 0 29 -17 48
-39z m1756 12 c3 -20 -1 -23 -27 -23 -33 0 -46 13 -37 36 9 25 60 14 64 -13z
m-2446 -80 c36 -34 35 -44 -3 -72 -27 -20 -33 -21 -45 -9 -22 21 -30 88 -13
99 22 14 31 11 61 -18z m305 -24 c7 -6 13 -21 13 -34 0 -12 7 -36 16 -53 8
-18 12 -37 8 -43 -4 -7 4 -20 17 -30 20 -16 22 -20 9 -29 -10 -6 -21 -5 -35 4
-11 7 -33 16 -49 20 -24 6 -27 11 -23 34 2 15 7 34 11 43 4 9 -4 30 -19 53
-14 20 -25 42 -25 48 0 13 57 3 77 -13z m1873 -95 c0 -16 -16 -19 -25 -4 -8
13 4 32 16 25 5 -4 9 -13 9 -21z m-829 -5 c24 -18 24 -18 4 -33 -11 -9 -34
-16 -51 -16 -17 0 -48 -11 -68 -25 -40 -27 -56 -31 -72 -15 -8 8 -4 26 12 59
l24 49 63 0 c46 0 70 -6 88 -19z m-1183 -76 c4 -25 -22 -53 -49 -53 -23 0 -39
32 -20 38 7 2 21 13 29 23 20 23 36 20 40 -8z m936 0 c8 -19 -38 -62 -66 -63
-26 0 -22 10 15 47 37 37 43 39 51 16z m-323 -2 c-8 -5 -20 -7 -28 -4 -21 8
-15 13 15 13 20 0 23 -3 13 -9z m1874 -57 c0 -12 -13 -26 -35 -36 -43 -22 -59
-9 -34 26 29 39 69 45 69 10z m-1397 4 c-3 -7 -15 -13 -28 -13 -13 0 -25 6
-27 13 -3 8 6 12 27 12 21 0 30 -4 28 -12z m-248 -28 c0 -16 -41 -33 -52 -22
-6 6 -7 15 -4 21 9 14 56 15 56 1z m1327 -52 c13 -12 23 -27 23 -34 0 -7 17
-26 37 -43 36 -30 36 -31 13 -31 -25 0 -80 48 -80 69 0 6 -7 11 -15 11 -9 0
-15 9 -15 25 0 31 7 31 37 3z m-1545 -10 c31 -9 44 -9 60 1 22 14 34 7 40 -24
2 -11 14 -22 28 -25 30 -7 38 -41 15 -60 -14 -11 -22 -12 -48 -1 -171 70 -231
77 -288 30 -23 -18 -33 -36 -34 -55 l0 -29 -70 3 c-61 2 -71 0 -86 -19 -16
-21 -16 -21 -44 -3 -28 18 -28 18 -50 -9 -33 -42 -53 -28 -51 36 2 66 9 77 50
77 18 0 41 7 52 15 10 8 33 15 49 15 31 0 145 33 173 50 24 13 157 12 204 -2z
m1693 -3 c0 -5 -10 -11 -22 -13 -16 -2 -23 2 -23 13 0 11 7 15 23 13 12 -2 22
-7 22 -13z m-215 -36 c0 -5 -7 -9 -15 -9 -15 0 -20 12 -9 23 8 8 24 -1 24 -14z
m218 -55 c30 -21 28 -44 -3 -44 -25 0 -51 32 -40 50 8 14 17 13 43 -6z m-548
-4 c0 -5 -7 -10 -15 -10 -8 0 -15 5 -15 10 0 6 7 10 15 10 8 0 15 -4 15 -10z
m375 -30 c10 -11 15 -26 11 -36 -6 -15 -8 -15 -26 1 -20 18 -28 55 -12 55 5 0
17 -9 27 -20z m-2235 6 c0 -5 -65 -46 -74 -46 -18 0 -2 28 22 37 29 12 52 16
52 9z m1117 -123 c5 -15 -35 -55 -50 -50 -14 4 -21 32 -13 53 7 18 57 15 63
-3z"/>
<path d="M3027 3889 c-10 -6 -15 -14 -12 -20 10 -14 45 -11 45 5 0 21 -12 26
-33 15z"/>
<path d="M2874 3805 c-4 -9 -2 -21 4 -27 15 -15 44 -1 40 19 -4 23 -36 29 -44
8z"/>
<path d="M2749 2482 c-8 -4 -59 -53 -112 -108 -83 -87 -106 -105 -158 -124
-82 -31 -78 -53 11 -60 104 -9 197 18 206 59 4 14 14 35 24 46 10 11 24 38 31
60 17 52 27 65 50 65 20 0 23 10 13 48 -6 22 -32 28 -65 14z"/>
<path d="M2360 2190 c0 -15 5 -20 18 -18 9 2 17 10 17 18 0 8 -8 16 -17 18
-13 2 -18 -3 -18 -18z"/>
<path d="M2203 2104 c-7 -18 9 -51 23 -46 14 3 11 55 -3 59 -7 3 -16 -3 -20
-13z"/>
<path d="M2044 2035 c-4 -9 -2 -21 4 -27 16 -16 47 -5 47 17 0 26 -42 34 -51
10z"/>
<path d="M1943 1903 c-13 -2 -23 -8 -23 -12 0 -11 23 -31 36 -31 18 0 45 30
39 41 -6 9 -13 10 -52 2z"/>
<path d="M1602 1723 c-23 -20 -42 -40 -42 -44 0 -18 37 -17 76 2 37 17 44 25
44 50 0 40 -26 38 -78 -8z"/>
<path d="M3027 293 c-14 -13 -6 -33 13 -33 13 0 20 7 20 20 0 19 -20 27 -33
13z"/>
<path d="M2062 113 c2 -23 8 -29 36 -31 39 -4 42 -23 7 -50 -14 -11 -25 -23
-25 -26 0 -4 46 -5 103 -4 l102 3 3 29 c3 22 -3 35 -25 52 -32 27 -78 31 -87
9 -10 -26 -36 -17 -42 15 -6 26 -11 30 -41 30 -32 0 -34 -2 -31 -27z"/>
<path d="M13 63 c-7 -2 -13 -18 -13 -34 l0 -29 95 0 c94 0 108 6 87 35 -16 24
-132 43 -169 28z"/>
<path d="M2030 35 c0 -8 9 -15 20 -15 11 0 20 7 20 15 0 8 -9 15 -20 15 -11 0
-20 -7 -20 -15z"/>
</g>
</svg>
