<svg id="Layer_1" enable-background="new 0 0 128 128" height="512" viewBox="0 0 128 128" width="512" xmlns="http://www.w3.org/2000/svg" xmlns:xlink="http://www.w3.org/1999/xlink"><linearGradient id="SVGID_1_" gradientTransform="matrix(1 0 0 -1 0 130)" gradientUnits="userSpaceOnUse" x1="96.91" x2="6.342" y1="20.744" y2="111.311"><stop offset="0" stop-color="#fc8d32"/><stop offset="1" stop-color="#9de1f8"/></linearGradient><path d="m60.3 51.8c-1-.1-1.6-1-1.5-2s1-1.6 2-1.5h.1c.2 0 .4.1.7.1 1 .1 1.6 1 1.5 1.9s-.9 1.5-1.7 1.5c-.1 0-.1 0-.2 0-.4.1-.7.1-.9 0zm15 36c-1 0-1.8.8-1.8 1.8s.8 1.8 1.8 1.8h1c1 0 1.8-.8 1.8-1.8s-.8-1.8-1.8-1.8zm38.1 3.5h-30.6c-1 0-1.8-.8-1.8-1.8s.8-1.8 1.8-1.8h28.5c-.5-2.1-1.7-5.4-4.2-6.9-2-1.2-4.6-1.1-7.8.2-13.9 5.8-22.9 1.3-23.3 1.2-.9-.4-1.2-1.5-.8-2.4s1.5-1.2 2.4-.8c.1.1 8.1 3.9 20.3-1.3 4.3-1.8 8-1.8 10.9 0 1.1.6 2 1.5 2.7 2.5v-14.4h-8.7c-1.3 4.7-4.6 8.5-9.1 10.5-1.9.9-4 1.3-6.2 1.3-3.3 0-6.4-1-9.1-2.8-6.6-4.4-11.1-3.1-12.8-2.4v15.4h3.8c1 0 1.8.8 1.8 1.8s-.8 1.8-1.8 1.8h-28c.5 2.1 1.7 5.4 4.2 6.9 2 1.2 4.6 1.1 7.8-.2 13.9-5.8 22.9-1.3 23.3-1.2.9.4 1.2 1.5.8 2.4s-1.5 1.2-2.4.8c-.1-.1-8.1-3.9-20.3 1.3-1.9.8-3.9 1.3-5.9 1.3-1.8 0-3.5-.4-5-1.3-1.1-.6-2-1.5-2.7-2.5v14.5h2.8c1.3-4.7 4.6-8.5 9.1-10.5 5-2.1 10.8-1.6 15.3 1.5 8.3 5.5 13.3 2.1 13.5 2 .8-.6 1.9-.4 2.4.4.6.8.4 1.9-.4 2.4-.3.2-7 5-17.5-1.9-3.5-2.5-8-2.9-12-1.3-3.2 1.4-5.6 4-6.8 7.3h3.1c3.6-3.8 7.1-5.5 10.4-4.9 3.5.5 5.7 3.4 6.6 4.9h19.2v-10.2c-.6.1-1.2.2-1.8.2-1.4 0-2.8-.3-4.1-.9-.8-.5-1.1-1.6-.6-2.4s1.5-1.1 2.3-.6c1.3.6 2.8.6 4.2.2v-3.6c0-1 .8-1.8 1.8-1.8s1.8.8 1.8 1.8v19c0 1-.8 1.8-1.8 1.8h-49.4c-1 0-1.8-.8-1.8-1.8v-23.7h-22.9c-1 0-1.8-.8-1.8-1.8v-25.5c0-1 .8-1.8 1.8-1.8h72c-.5-2.1-1.7-5.4-4.2-6.9-2-1.2-4.6-1.1-7.8.2-13.9 5.8-22.9 1.3-23.3 1.2-.9-.4-1.2-1.5-.8-2.4s1.5-1.2 2.4-.8c.1.1 8.1 3.9 20.3-1.3 4.3-1.8 8-1.8 10.9 0 1.1.6 2 1.5 2.7 2.5v-14.4h-8.7c-1.4 5.1-5.2 9.2-10.1 10.9-.9.3-1.9-.1-2.3-1-.3-.9.1-1.9 1-2.3h.1c3.5-1.3 6.3-4.1 7.6-7.6h-33.3v2.9c2.9-.9 8.1-1.2 14.7 3.2.8.5 1 1.6.5 2.4s-1.6 1-2.4.5c-6.6-4.4-11.1-3.1-12.8-2.4v3.6c2-.4 4.1-.1 5.9.8.8.5 1.1 1.6.6 2.4s-1.5 1.1-2.3.6c-1.3-.6-2.8-.6-4.2-.2v3.4c0 1-.8 1.8-1.8 1.8s-1.8-.8-1.8-1.8v-17.2h-22.9c-1 0-1.8-.8-1.8-1.8v-25.5c0-1 .5-1.8 1.8-1.8h49.4c1 0 1.8.8 1.8 1.8v23.8h22.9c1 0 1.8.8 1.8 1.8v23.8h22.9c1 0 1.8.8 1.8 1.8v25.5c-.1.8-.4 1.6-1.8 1.6zm-97-54.5h8.7c1.3-4.7 4.6-8.5 9.1-10.5 5-2.2 10.8-1.6 15.3 1.5 6.6 4.4 11.1 3.1 12.8 2.4v-15.4h-45.6c.5 2.1 1.7 5.4 4.2 6.9 2 1.2 4.6 1.1 7.8-.2 13.9-5.8 22.9-1.3 23.3-1.2.9.4 1.2 1.5.8 2.4s-1.5 1.2-2.4.8c-.1-.1-8.1-3.9-20.3 1.3-1.9.8-3.9 1.3-5.9 1.3-1.8 0-3.5-.4-5-1.4-1.1-.6-2-1.5-2.7-2.5zm28.1 0c-.7-.8-1.7-1.3-2.8-1.5-1.7-.1-3.3.4-4.6 1.5zm17.8 0v-2.9c-2.9.9-8.1 1.2-14.7-3.2-3.5-2.5-8-2.9-12-1.3-3.2 1.4-5.6 4-6.8 7.3h3.1c3.6-3.8 7.1-5.5 10.4-4.9 3.5.5 5.7 3.4 6.6 4.9h13.4zm-6.4 76.5h7.4c-.7-.8-1.7-1.3-2.8-1.5-1.7-.2-3.3.4-4.6 1.5zm27.6-47.5c.7.8 1.7 1.3 2.8 1.5 1.7.1 3.3-.4 4.6-1.5zm-67.1 0v8.2c1.4.4 2.8.3 4.2-.2.8-.5 1.9-.2 2.4.7.5.8.2 1.9-.6 2.4-1.3.6-2.7 1-4.1.9-.6 0-1.2-.1-1.8-.2v3.6c1.7.8 6.2 2 12.8-2.4 4.5-3.1 10.3-3.7 15.3-1.5 4.5 2 7.8 5.8 9.1 10.5h8.7v-14.6c-.8 1-1.7 1.8-2.8 2.5-1.5.9-3.2 1.4-5 1.3-2.1 0-4.1-.5-5.9-1.3-12.4-5.2-20.2-1.3-20.3-1.3-.9.4-1.9.1-2.3-.8-.4-.8-.1-1.9.7-2.3.4-.2 9.4-4.7 23.3 1.2 3.2 1.3 5.8 1.4 7.8.2 2.6-1.5 3.7-4.8 4.2-6.9zm0 22h33.5c-1.2-3.3-3.6-5.9-6.8-7.3-3.9-1.7-8.5-1.2-12 1.3-6.6 4.4-11.8 4-14.7 3.2zm82.8-22h-3.1c-3.2 3.3-6.2 5-9.2 5-.4 0-.8 0-1.2-.1-3.5-.5-5.7-3.4-6.6-4.9h-13.3v2.9c2.9-.9 8.1-1.2 14.7 3.2 3.5 2.5 8 2.9 12 1.3 3.1-1.6 5.6-4.2 6.7-7.4z" fill="url(#SVGID_1_)"/></svg>